<svg width="34px" height="37px" viewBox="0 0 34 37" fill="none" xmlns="http://www.w3.org/2000/svg">
    <path d="M2.20453 32.9V22.1C2.20453 18.2809 3.76333 14.6182 6.53802 11.9177C9.31271 9.21714 13.076 7.7 17 7.7C20.924 7.7 24.6873 9.21714 27.462 11.9177C30.2367 14.6182 31.7955 18.2809 31.7955 22.1V32.9H33.6449V36.5H0.355091V32.9H2.20453ZM5.90339 32.9H28.0966V22.1C28.0966 19.2357 26.9275 16.4886 24.8465 14.4632C22.7655 12.4379 19.943 11.3 17 11.3C14.057 11.3 11.2345 12.4379 9.15352 14.4632C7.0725 16.4886 5.90339 19.2357 5.90339 22.1V32.9ZM15.1506 0.5H18.8494V5.9H15.1506V0.5ZM31.3849 5.5544L34 8.0996L30.0792 11.9174L27.4622 9.3722L31.3849 5.5544ZM0 8.0996L2.6151 5.5544L6.53775 9.3704L3.9245 11.9192L0 8.0996ZM7.75283 22.1C7.75283 19.7131 8.72708 17.4239 10.4613 15.736C12.1954 14.0482 14.5475 13.1 17 13.1V16.7C15.5285 16.7 14.1173 17.2689 13.0768 18.2816C12.0362 19.2943 11.4517 20.6678 11.4517 22.1H7.75283Z"
          fill="#00EAFF"/>
</svg>