<svg width="36px" height="36px" viewBox="0 0 36 36" fill="none"
     xmlns="http://www.w3.org/2000/svg">
    <path
            d="M0.00276903 5.54041C0.00276903 4.07152 0.586284 2.66279 1.62495 1.62413C2.66361 0.585468 4.07234 0.00195313 5.54123 0.00195312H27.6951C29.164 0.00195313 30.5727 0.585468 31.6114 1.62413C32.65 2.66279 33.2335 4.07152 33.2335 5.54041V22.5158L30.4643 17.822V5.53765C30.4643 4.8032 30.1726 4.09883 29.6532 3.5795C29.1339 3.06017 28.4295 2.76841 27.6951 2.76841H5.53846C4.80402 2.76841 4.09965 3.06017 3.58032 3.5795C3.06099 4.09883 2.76923 4.8032 2.76923 5.53765V27.6915C2.76923 28.4259 3.06099 29.1303 3.58032 29.6496C4.09965 30.169 4.80402 30.4607 5.53846 30.4607H11.9271L11.8163 30.6463C11.3511 31.4327 11.0963 32.3189 11.0769 33.2272H5.53846C4.06957 33.2272 2.66084 32.6437 1.62218 31.605C0.583515 30.5663 0 29.1576 0 27.6887V5.54041H0.00276903Z"
            fill="#00EAFF"/>
    <path
            d="M14.3777 26.3083L16.0116 23.5391H13.8543C13.4871 23.5391 13.1349 23.6849 12.8753 23.9446C12.6156 24.2043 12.4697 24.5565 12.4697 24.9237C12.4697 25.2909 12.6156 25.6431 12.8753 25.9028C13.1349 26.1624 13.4871 26.3083 13.8543 26.3083H14.3805H14.3777Z"
            fill="#00EAFF"/>
    <path
            d="M19.2793 18.0008L20.1322 16.5553C20.4245 16.0598 20.7937 15.6139 21.226 15.2344H13.8543C13.4871 15.2344 13.1349 15.3803 12.8753 15.6399C12.6156 15.8996 12.4697 16.2518 12.4697 16.619C12.4697 16.9862 12.6156 17.3384 12.8753 17.5981C13.1349 17.8577 13.4871 18.0036 13.8543 18.0036H19.2793V18.0008Z"
            fill="#00EAFF"/>
    <path
            d="M9.69242 8.30739C9.69242 8.85823 9.4736 9.3865 9.0841 9.776C8.69461 10.1655 8.16633 10.3843 7.6155 10.3843C7.06466 10.3843 6.53639 10.1655 6.14689 9.776C5.75739 9.3865 5.53857 8.85823 5.53857 8.30739C5.53857 7.75656 5.75739 7.22828 6.14689 6.83879C6.53639 6.44929 7.06466 6.23047 7.6155 6.23047C8.16633 6.23047 8.69461 6.44929 9.0841 6.83879C9.4736 7.22828 9.69242 7.75656 9.69242 8.30739Z"
            fill="#00EAFF"/>
    <path
            d="M7.6155 18.6988C8.16633 18.6988 8.69461 18.48 9.0841 18.0905C9.4736 17.701 9.69242 17.1727 9.69242 16.6218C9.69242 16.071 9.4736 15.5427 9.0841 15.1532C8.69461 14.7637 8.16633 14.5449 7.6155 14.5449C7.06466 14.5449 6.53639 14.7637 6.14689 15.1532C5.75739 15.5427 5.53857 16.071 5.53857 16.6218C5.53857 17.1727 5.75739 17.701 6.14689 18.0905C6.53639 18.48 7.06466 18.6988 7.6155 18.6988Z"
            fill="#00EAFF"/>
    <path
            d="M9.69242 24.9226C9.69242 25.4735 9.4736 26.0017 9.0841 26.3912C8.69461 26.7807 8.16633 26.9995 7.6155 26.9995C7.06466 26.9995 6.53639 26.7807 6.14689 26.3912C5.75739 26.0017 5.53857 25.4735 5.53857 24.9226C5.53857 24.3718 5.75739 23.8435 6.14689 23.454C6.53639 23.0645 7.06466 22.8457 7.6155 22.8457C8.16633 22.8457 8.69461 23.0645 9.0841 23.454C9.4736 23.8435 9.69242 24.3718 9.69242 24.9226Z"
            fill="#00EAFF"/>
    <path
            d="M13.8543 6.92383C13.4871 6.92383 13.1349 7.06971 12.8753 7.32937C12.6156 7.58904 12.4697 7.94122 12.4697 8.30844C12.4697 8.67567 12.6156 9.02785 12.8753 9.28751C13.1349 9.54718 13.4871 9.69306 13.8543 9.69306H26.2439C26.6111 9.69306 26.9633 9.54718 27.223 9.28751C27.4826 9.02785 27.6285 8.67567 27.6285 8.30844C27.6285 7.94122 27.4826 7.58904 27.223 7.32937C26.9633 7.06971 26.6111 6.92383 26.2439 6.92383H13.8543Z"
            fill="#00EAFF"/>
    <path
            d="M24.1895 16.7115C24.8818 16.5287 25.6433 16.6007 26.3107 16.9746C26.7399 17.2127 27.0889 17.5561 27.3298 17.9604L35.643 32.0558C36.0141 32.6872 36.0861 33.3933 35.9061 34.0386C35.8101 34.3774 35.6475 34.6938 35.4278 34.9691C35.2081 35.2444 34.9358 35.4731 34.6267 35.642C34.2058 35.8746 33.7267 36.002 33.2365 36.002H16.6101C15.8347 36.002 15.1396 35.6973 14.6412 35.21C14.2251 34.8094 13.9558 34.2806 13.8765 33.7086C13.7971 33.1366 13.9123 32.5545 14.2036 32.0558L22.5169 17.9604C22.8874 17.3394 23.4888 16.8904 24.1895 16.7115ZM26.3079 20.774C26.3079 20.4067 26.1621 20.0546 25.9024 19.7949C25.6427 19.5352 25.2905 19.3893 24.9233 19.3893C24.5561 19.3893 24.2039 19.5352 23.9442 19.7949C23.6846 20.0546 23.5387 20.4067 23.5387 20.774V26.3013C23.5387 26.6686 23.6846 27.0208 23.9442 27.2804C24.2039 27.5401 24.5561 27.686 24.9233 27.686C25.2905 27.686 25.6427 27.5401 25.9024 27.2804C26.1621 27.0208 26.3079 26.6686 26.3079 26.3013V20.774ZM24.9233 34.6146C25.4741 34.6146 26.0024 34.3958 26.3919 34.0063C26.7814 33.6168 27.0002 33.0885 27.0002 32.5377C27.0002 31.9868 26.7814 31.4585 26.3919 31.069C26.0024 30.6796 25.4741 30.4607 24.9233 30.4607C24.3725 30.4607 23.8442 30.6796 23.4547 31.069C23.0652 31.4585 22.8464 31.9868 22.8464 32.5377C22.8464 33.0885 23.0652 33.6168 23.4547 34.0063C23.8442 34.3958 24.3725 34.6146 24.9233 34.6146Z"
            fill="#00EAFF"/>
</svg>