<svg width="34px" height="34px" viewBox="0 0 34 34" fill="none"
     xmlns="http://www.w3.org/2000/svg">
    <path
            d="M19.3568 17.0007L24.0718 12.2873C24.2267 12.1325 24.3495 11.9486 24.4333 11.7463C24.5171 11.544 24.5603 11.3271 24.5603 11.1082C24.5603 10.8892 24.5171 10.6723 24.4333 10.47C24.3495 10.2677 24.2267 10.0838 24.0718 9.92898C23.917 9.77413 23.7331 9.6513 23.5308 9.5675C23.3285 9.48369 23.1117 9.44056 22.8927 9.44056C22.6737 9.44056 22.4568 9.48369 22.2545 9.5675C22.0522 9.6513 21.8683 9.77413 21.7135 9.92898L17.0002 14.644L12.2868 9.92898C11.9741 9.61625 11.5499 9.44056 11.1077 9.44056C10.6654 9.44056 10.2412 9.61625 9.9285 9.92898C9.61576 10.2417 9.44007 10.6659 9.44007 11.1082C9.44007 11.3271 9.4832 11.544 9.56701 11.7463C9.65081 11.9486 9.77365 12.1325 9.9285 12.2873L14.6435 17.0007L9.9285 21.714C9.61576 22.0267 9.44007 22.4509 9.44007 22.8932C9.44007 23.3354 9.61576 23.7596 9.9285 24.0723C10.2412 24.3851 10.6654 24.5607 11.1077 24.5607C11.5499 24.5607 11.9741 24.3851 12.2868 24.0723L17.0002 19.3573L21.7135 24.0723C22.0262 24.3851 22.4504 24.5607 22.8927 24.5607C23.3349 24.5607 23.7591 24.3851 24.0718 24.0723C24.3846 23.7596 24.5603 23.3354 24.5603 22.8932C24.5603 22.4509 24.3846 22.0267 24.0718 21.714L19.3568 17.0007ZM17.0002 33.6673C7.79516 33.6673 0.333496 26.2057 0.333496 17.0007C0.333496 7.79565 7.79516 0.333984 17.0002 0.333984C26.2052 0.333984 33.6668 7.79565 33.6668 17.0007C33.6668 26.2057 26.2052 33.6673 17.0002 33.6673Z"
            fill="#8FCDCC"/>
</svg>