<svg width="36px" height="32px" viewBox="0 0 36 32" fill="none"
     xmlns="http://www.w3.org/2000/svg">
    <path
            d="M32.7273 22.4V3.2H3.27273V22.4H32.7273ZM32.7273 0C33.5953 0 34.4277 0.337142 35.0414 0.937258C35.6552 1.53737 36 2.35131 36 3.2V22.4C36 23.2487 35.6552 24.0626 35.0414 24.6627C34.4277 25.2629 33.5953 25.6 32.7273 25.6H21.2727V28.8H24.5455V32H11.4545V28.8H14.7273V25.6H3.27273C2.40475 25.6 1.57232 25.2629 0.95856 24.6627C0.344804 24.0626 0 23.2487 0 22.4V3.2C0 1.424 1.45636 0 3.27273 0H32.7273ZM6.54545 6.4H21.2727V14.4H6.54545V6.4ZM22.9091 6.4H29.4545V9.6H22.9091V6.4ZM29.4545 11.2V19.2H22.9091V11.2H29.4545ZM6.54545 16H13.0909V19.2H6.54545V16ZM14.7273 16H21.2727V19.2H14.7273V16Z"
            fill="#00EAFF"/>
</svg>