<svg width="34px" height="30px" viewBox="0 0 34 30" fill="none" xmlns="http://www.w3.org/2000/svg">
    <path
            d="M3.40088 3.25C2.71053 3.25 2.15088 3.80964 2.15088 4.5C2.15088 5.19036 2.71053 5.75 3.40088 5.75V3.25ZM21.5342 5.75C22.2246 5.75 22.7842 5.19036 22.7842 4.5C22.7842 3.80964 22.2246 3.25 21.5342 3.25V5.75ZM3.40088 24.25C2.71052 24.25 2.15088 24.8096 2.15088 25.5C2.15088 26.1904 2.71052 26.75 3.40088 26.75V24.25ZM21.5342 26.75C22.2246 26.75 22.7842 26.1904 22.7842 25.5C22.7842 24.8096 22.2246 24.25 21.5342 24.25V26.75ZM3.40088 5.75H21.5342V3.25H3.40088V5.75ZM3.40088 26.75H21.5342V24.25H3.40088V26.75Z"
            fill="#D1E8FD"/>
    <path
            d="M28.0414 11.2664C27.6363 10.8911 27.0036 10.9152 26.6282 11.3204C26.2529 11.7255 26.2771 12.3582 26.6822 12.7336L28.0414 11.2664ZM30.5999 15L31.2795 15.7336C31.4838 15.5443 31.5999 15.2785 31.5999 15C31.5999 14.7215 31.4838 14.4557 31.2795 14.2664L30.5999 15ZM26.6822 17.2664C26.2771 17.6418 26.2529 18.2745 26.6282 18.6796C27.0036 19.0848 27.6363 19.1089 28.0414 18.7336L26.6822 17.2664ZM3.3999 14C2.84762 14 2.3999 14.4477 2.3999 15C2.3999 15.5523 2.84762 16 3.3999 16V14ZM29.3047 16C29.8569 16 30.3047 15.5523 30.3047 15C30.3047 14.4477 29.8569 14 29.3047 14V16ZM26.6822 12.7336L29.9203 15.7336L31.2795 14.2664L28.0414 11.2664L26.6822 12.7336ZM29.9203 14.2664L26.6822 17.2664L28.0414 18.7336L31.2795 15.7336L29.9203 14.2664ZM3.3999 16H16.3523V14H3.3999V16ZM16.3523 16H29.3047V14H16.3523V16Z"
            fill="#D1E8FD"/>
</svg>