<svg width="34px" height="30px" viewBox="0 0 34 30" fill="none" xmlns="http://www.w3.org/2000/svg">
    <path
            d="M30.5991 26.75C31.2895 26.75 31.8491 26.1904 31.8491 25.5C31.8491 24.8096 31.2895 24.25 30.5991 24.25L30.5991 26.75ZM12.4658 24.25C11.7754 24.25 11.2158 24.8096 11.2158 25.5C11.2158 26.1904 11.7754 26.75 12.4658 26.75L12.4658 24.25ZM30.5991 5.75C31.2895 5.75 31.8491 5.19035 31.8491 4.5C31.8491 3.80964 31.2895 3.25 30.5991 3.25L30.5991 5.75ZM12.4658 3.25C11.7754 3.25 11.2158 3.80964 11.2158 4.5C11.2158 5.19036 11.7754 5.75 12.4658 5.75L12.4658 3.25ZM30.5991 24.25L12.4658 24.25L12.4658 26.75L30.5991 26.75L30.5991 24.25ZM30.5991 3.25L12.4658 3.25L12.4658 5.75L30.5991 5.75L30.5991 3.25Z"
            fill="#D1E8FD"/>
    <path
            d="M5.95857 18.7336C6.3637 19.1089 6.99641 19.0848 7.37175 18.6796C7.7471 18.2745 7.72295 17.6418 7.31781 17.2664L5.95857 18.7336ZM3.40009 15L2.72047 14.2664C2.5162 14.4557 2.40009 14.7215 2.40009 15C2.40009 15.2785 2.5162 15.5443 2.72047 15.7336L3.40009 15ZM7.31781 12.7336C7.72295 12.3582 7.7471 11.7255 7.37175 11.3204C6.99641 10.9152 6.3637 10.8911 5.95857 11.2664L7.31781 12.7336ZM30.6001 16C31.1524 16 31.6001 15.5523 31.6001 15C31.6001 14.4477 31.1524 14 30.6001 14L30.6001 16ZM4.69534 14C4.14305 14 3.69534 14.4477 3.69534 15C3.69534 15.5523 4.14305 16 4.69534 16L4.69534 14ZM7.31781 17.2664L4.07972 14.2664L2.72047 15.7336L5.95857 18.7336L7.31781 17.2664ZM4.07972 15.7336L7.31781 12.7336L5.95857 11.2664L2.72047 14.2664L4.07972 15.7336ZM30.6001 14L17.6477 14L17.6477 16L30.6001 16L30.6001 14ZM17.6477 14L4.69534 14L4.69534 16L17.6477 16L17.6477 14Z"
            fill="#D1E8FD"/>
</svg>