<svg width="18px" height="18px" viewBox="0 0 18 18" fill="none" xmlns="http://www.w3.org/2000/svg">
    <path
            d="M15.3418 2.65819C14.5105 1.81863 13.5215 1.15161 12.4316 0.695436C11.3417 0.239264 10.1724 0.00293516 8.99086 2.71677e-05C7.80935 -0.00288082 6.63891 0.227689 5.54678 0.67849C4.45465 1.12929 3.46235 1.79144 2.6269 2.6269C1.79144 3.46235 1.12929 4.45465 0.67849 5.54678C0.227689 6.63891 -0.00288082 7.80935 2.71677e-05 8.99086C0.00293516 10.1724 0.239264 11.3417 0.695436 12.4316C1.15161 13.5215 1.81863 14.5105 2.65819 15.3418C3.48952 16.1814 4.47855 16.8484 5.56845 17.3046C6.65834 17.7607 7.82764 17.9971 9.00914 18C10.1907 18.0029 11.3611 17.7723 12.4532 17.3215C13.5454 16.8707 14.5377 16.2086 15.3731 15.3731C16.2086 14.5377 16.8707 13.5454 17.3215 12.4532C17.7723 11.3611 18.0029 10.1907 18 9.00914C17.9971 7.82764 17.7607 6.65834 17.3046 5.56845C16.8484 4.47855 16.1814 3.48952 15.3418 2.65819ZM1.31247 9C1.31218 8.31962 1.4024 7.64222 1.58073 6.98563C1.87462 7.61825 2.30144 8.16478 2.59172 8.81382C2.96689 9.64823 3.97428 9.41681 4.41911 10.1479C4.8139 10.797 4.39229 11.6178 4.68778 12.2968C4.90239 12.7897 5.40848 12.8974 5.75763 13.2578C6.11437 13.6213 6.10677 14.1194 6.16122 14.5935C6.22267 15.1505 6.32233 15.7026 6.45951 16.2459C6.45951 16.2499 6.45951 16.2543 6.46272 16.2583C3.46658 15.2061 1.31247 12.3501 1.31247 9ZM9 16.6875C8.57068 16.6874 8.14211 16.6515 7.71875 16.5802C7.72315 16.4717 7.72515 16.3704 7.73596 16.2999C7.83326 15.6633 8.15197 15.0407 8.58199 14.5642C9.00681 14.0942 9.58898 13.7763 9.94773 13.243C10.2993 12.7224 10.4046 12.0218 10.2596 11.4136C10.0462 10.5151 8.82543 10.2152 8.16718 9.72791C7.78881 9.44764 7.45208 9.01441 6.9552 8.97918C6.72617 8.96316 6.53439 9.01241 6.30736 8.95395C6.09916 8.8999 5.9358 8.78779 5.71398 8.81702C5.29958 8.87147 5.03812 9.31431 4.59288 9.25425C4.17047 9.19779 3.73524 8.70331 3.63915 8.30092C3.51583 7.78361 3.92503 7.61584 4.36346 7.5698C4.54644 7.55058 4.75184 7.52976 4.92761 7.59703C5.15904 7.68271 5.26835 7.90933 5.47615 8.02384C5.86573 8.23765 5.94461 7.89612 5.88495 7.55018C5.79566 7.03207 5.69156 6.82107 6.15361 6.46432C6.47393 6.21848 6.74779 6.0407 6.69654 5.59907C6.66611 5.33962 6.52398 5.2223 6.65651 4.96405C6.757 4.76746 7.03287 4.59008 7.21265 4.47277C7.6767 4.17007 9.2006 4.19249 8.57799 3.34526C8.39501 3.09662 8.05748 2.65218 7.73716 2.59132C7.33677 2.51565 7.159 2.96249 6.87992 3.15948C6.59164 3.36328 6.03029 3.59471 5.74161 3.2796C5.35323 2.85558 5.99906 2.71665 6.142 2.42036C6.20807 2.28222 6.142 2.09043 6.03069 1.90986C6.1751 1.849 6.32191 1.79254 6.47112 1.74049C6.56464 1.80956 6.67557 1.85116 6.79144 1.86061C7.0593 1.87823 7.31195 1.73328 7.54578 1.91586C7.80523 2.11606 7.99221 2.36911 8.33655 2.43157C8.66968 2.49203 9.02242 2.29784 9.1049 1.9567C9.15495 1.7493 9.1049 1.53029 9.05686 1.31608C10.5543 1.32469 12.0163 1.77316 13.261 2.60574C13.1809 2.57531 13.0852 2.57891 12.9671 2.63377C12.724 2.74668 12.3797 3.03416 12.3513 3.31924C12.3189 3.64275 12.7961 3.6884 13.0227 3.6884C13.3631 3.6884 13.7078 3.53625 13.5981 3.14306C13.5505 2.9725 13.4856 2.79512 13.3811 2.68782C13.6323 2.86213 13.873 3.05118 14.1018 3.25397C14.0982 3.25758 14.0946 3.26078 14.091 3.26478C13.8604 3.50502 13.5925 3.69521 13.4347 3.98749C13.3234 4.19329 13.1981 4.29099 12.9727 4.34424C12.8486 4.37347 12.7068 4.38428 12.6027 4.46756C12.3128 4.69579 12.4778 5.24432 12.7525 5.40888C13.0996 5.61669 13.6145 5.51899 13.8764 5.2223C14.081 4.99007 14.2015 4.58688 14.5695 4.58728C14.7315 4.58694 14.8871 4.65037 15.0027 4.76385C15.1548 4.92161 15.1248 5.06895 15.1572 5.26594C15.2145 5.61589 15.5232 5.4261 15.711 5.24953C15.8479 5.49313 15.9714 5.74402 16.0809 6.00106C15.8743 6.29855 15.7102 6.62287 15.2133 6.27613C14.9158 6.06833 14.7328 5.76683 14.3592 5.67314C14.0329 5.59306 13.6986 5.67635 13.3763 5.732C13.0099 5.79566 12.5755 5.82369 12.2976 6.10116C12.029 6.36862 11.8868 6.72657 11.6009 6.99524C11.048 7.51575 10.8146 8.0839 11.1725 8.81982C11.5169 9.52732 12.2372 9.91129 13.0143 9.86084C13.7779 9.80999 14.5711 9.36716 14.549 10.4766C14.541 10.8694 14.6231 11.1413 14.7436 11.5061C14.8553 11.8424 14.8477 12.1683 14.8734 12.5154C14.8977 12.9219 14.9613 13.3251 15.0631 13.7194C14.3455 14.6434 13.4261 15.3912 12.3753 15.9056C11.3245 16.42 10.17 16.6875 9 16.6875Z"
            fill="#00EAFF"/>
</svg>