<svg width="36px" height="32px" viewBox="0 0 36 32" fill="none"
     xmlns="http://www.w3.org/2000/svg">
    <path
            d="M3.27273 3.2V22.4H32.7273V3.2H3.27273ZM3.27273 0H32.7273C33.5953 0 34.4277 0.337142 35.0414 0.937258C35.6552 1.53737 36 2.35131 36 3.2V22.4C36 23.248 35.6564 24.064 35.0345 24.656C34.4291 25.264 33.5945 25.6 32.7273 25.6H21.2727V28.8H24.5455V32H11.4545V28.8H14.7273V25.6H3.27273C2.40545 25.6 1.57091 25.264 0.965455 24.656C0.343636 24.064 0 23.248 0 22.4V3.2C0 1.424 1.45636 0 3.27273 0ZM16.1018 11.088C16.6091 10.608 17.2964 10.32 18 10.32C18.7036 10.336 19.3909 10.608 19.8982 11.104C20.3891 11.584 20.6836 12.256 20.6836 12.944C20.6836 13.648 20.3891 14.304 19.8982 14.8C19.3909 15.296 18.7036 15.568 18 15.568C17.2964 15.568 16.6091 15.28 16.1018 14.8C15.6109 14.304 15.3164 13.648 15.3164 12.944C15.3164 12.256 15.6109 11.584 16.1018 11.088ZM14.8418 16C15.2508 16.4154 15.7413 16.7458 16.284 16.9716C16.8266 17.1973 17.4103 17.3136 18 17.3136C18.5897 17.3136 19.1734 17.1973 19.716 16.9716C20.2587 16.7458 20.7492 16.4154 21.1582 16C21.9927 15.2 22.4673 14.096 22.4673 12.944C22.4673 11.792 21.9927 10.672 21.1582 9.856C20.3236 9.04 19.1782 8.576 18 8.576C16.8218 8.576 15.6764 9.04 14.8418 9.856C14.0073 10.672 13.5327 11.792 13.5327 12.944C13.5327 14.096 14.0073 15.2 14.8418 16ZM8.18182 12.944C8.95725 11.0155 10.3085 9.3599 12.0596 8.19273C13.8108 7.02556 15.8807 6.40088 18 6.4C22.4673 6.4 26.28 9.12 27.8182 12.944C27.0483 14.8762 25.6984 16.5354 23.946 17.7034C22.1936 18.8714 20.1208 19.4935 18 19.488C13.5327 19.488 9.72 16.8 8.18182 12.944Z"
            fill="#00EAFF"/>
</svg>