<svg width="37" height="37" viewBox="0 0 37 37" fill="none" xmlns="http://www.w3.org/2000/svg">
    <path d="M9.46835 36.4H6.53165C6.12996 36.4 5.92911 35.9866 5.92911 35.1598L5.93107 5.43745C5.93107 4.90594 5.78761 4.64019 5.50069 4.64019H0.647523C0.217143 4.64019 0.00195312 4.22679 0.00195312 3.39999L0 1.64018C0 0.813391 0.21519 0.399994 0.64557 0.399994H15.3544C15.7848 0.399994 16 0.813391 16 1.64018L16.002 3.39999C16.002 4.22679 15.7868 4.64019 15.3564 4.64019H10.5032C10.2163 4.64019 10.0728 4.90594 10.0728 5.43745L10.0709 35.1598C10.0709 35.9866 9.87004 36.4 9.46835 36.4Z"
          fill="#00EAFF"/>
    <path d="M29.4684 36.4H26.5316C26.13 36.4 25.9291 35.9866 25.9291 35.1598V5.83813C25.9311 4.90594 25.7876 4.64019 25.5007 4.64019H20.6475C20.2171 4.64019 20.002 4.22679 20.002 3.39999L20 1.64018C20 0.813391 20.2152 0.399994 20.6456 0.399994H35.3544C35.7848 0.399994 36 0.813391 36 1.64018L36.002 3.39999C36.002 4.22679 35.7868 4.64019 35.3564 4.64019H30.5032C30.2163 4.64019 30.0728 4.90594 30.0709 5.83813V35.1598C30.0709 35.9866 29.87 36.4 29.4684 36.4Z"
          fill="#00EAFF"/>
    <rect x="13.002" y="7.39999" width="10" height="5" rx="1" fill="#00EAFF"/>
    <rect x="13.002" y="23.4" width="10" height="5" rx="1" fill="#00EAFF"/>
    <rect x="13.002" y="15.4" width="4" height="5" rx="1" fill="#00EAFF"/>
    <rect x="13.002" y="31.4" width="4" height="5" rx="1" fill="#00EAFF"/>
    <rect x="19.002" y="15.4" width="4" height="5" rx="1" fill="#00EAFF"/>
    <rect x="19.002" y="31.4" width="4" height="5" rx="1" fill="#00EAFF"/>
</svg>