<svg width="90" height="90" viewBox="0 0 90 90" fill="none" xmlns="http://www.w3.org/2000/svg">
<path d="M67.0833 18.5002H89.1666V27.3335H80.3333V84.7502C80.3333 85.9215 79.8679 87.0449 79.0396 87.8732C78.2114 88.7015 77.088 89.1668 75.9166 89.1668H14.0833C12.9119 89.1668 11.7885 88.7015 10.9602 87.8732C10.1319 87.0449 9.66659 85.9215 9.66659 84.7502V27.3335H0.833252V18.5002H22.9166V5.25016C22.9166 4.07879 23.3819 2.95539 24.2102 2.12711C25.0385 1.29882 26.1619 0.833496 27.3333 0.833496H62.6666C63.838 0.833496 64.9614 1.29882 65.7896 2.12711C66.6179 2.95539 67.0833 4.07879 67.0833 5.25016V18.5002ZM71.4999 27.3335H18.4999V80.3335H71.4999V27.3335ZM51.2451 53.8335L59.0538 61.6422L52.8086 67.8873L44.9999 60.0787L37.1913 67.8873L30.9461 61.6422L38.7548 53.8335L30.9461 46.0248L37.1913 39.7797L44.9999 47.5883L52.8086 39.7797L59.0538 46.0248L51.2451 53.8335ZM31.7499 9.66683V18.5002H58.2499V9.66683H31.7499Z" fill="white"/>
</svg>
