<svg width="107" height="106" viewBox="0 0 107 106" fill="none" xmlns="http://www.w3.org/2000/svg">
<path fill-rule="evenodd" clip-rule="evenodd" d="M53.4999 13.25C55.9392 13.25 57.9166 15.2274 57.9166 17.6667V26.5H84.4166C87.9307 26.5 91.3009 27.896 93.7858 30.3808C96.2706 32.8657 97.6666 36.2359 97.6666 39.75V79.5C97.6666 83.0141 96.2706 86.3843 93.7858 88.8692C91.3009 91.354 87.9307 92.75 84.4166 92.75H22.5833C19.0691 92.75 15.6989 91.354 13.2141 88.8692C10.7292 86.3843 9.33325 83.0141 9.33325 79.5V39.75C9.33325 36.2359 10.7292 32.8657 13.2141 30.3808C15.6989 27.896 19.0691 26.5 22.5833 26.5H49.0833V17.6667C49.0833 15.2274 51.0607 13.25 53.4999 13.25ZM49.0833 35.3333H22.5833C21.4119 35.3333 20.2885 35.7987 19.4602 36.6269C18.6319 37.4552 18.1666 38.5786 18.1666 39.75V79.5C18.1666 80.6714 18.6319 81.7948 19.4602 82.6231C20.2885 83.4513 21.4119 83.9167 22.5833 83.9167H84.4166C85.588 83.9167 86.7114 83.4513 87.5396 82.6231C88.3679 81.7948 88.8333 80.6714 88.8333 79.5V39.75C88.8333 38.5786 88.3679 37.4552 87.5396 36.6269C86.7114 35.7987 85.588 35.3333 84.4166 35.3333H57.9166V51.1706L63.6269 45.4603C65.3517 43.7355 68.1482 43.7355 69.873 45.4603C71.5978 47.1851 71.5978 49.9816 69.873 51.7064L56.6261 64.9532C56.6155 64.9639 56.6048 64.9745 56.594 64.9851C55.8001 65.7646 54.7129 66.2465 53.5132 66.25C53.5088 66.25 53.5043 66.25 53.4999 66.25C53.4955 66.25 53.4911 66.25 53.4867 66.25C52.8926 66.2482 52.3262 66.1292 51.8093 65.9149C51.3002 65.7042 50.8225 65.3943 50.4058 64.9851C50.3951 64.9745 50.3844 64.9639 50.3737 64.9532L37.1269 51.7064C35.4021 49.9816 35.4021 47.1851 37.1269 45.4603C38.8517 43.7355 41.6482 43.7355 43.373 45.4603L49.0833 51.1706V35.3333Z" fill="white"/>
</svg>
