<svg width="36px" height="28px" viewBox="0 0 36 28" fill="none"
     xmlns="http://www.w3.org/2000/svg">
    <path
            d="M33 0.5H3C1.365 0.56 0.06 1.865 0 3.5V24.5C0.06 26.135 1.365 27.44 3 27.5H33C34.635 27.44 35.94 26.135 36 24.5V3.5C35.9724 2.71314 35.6475 1.96601 35.0907 1.40928C34.534 0.852541 33.7869 0.527608 33 0.5ZM33 24.5H3V3.5H33V24.5ZM21 21.5V19.625C21 17.135 15.99 15.875 13.5 15.875C11.01 15.875 6 17.135 6 19.625V21.5H21ZM13.5 6.5C12.5054 6.5 11.5516 6.89509 10.8483 7.59835C10.1451 8.30161 9.75 9.25544 9.75 10.25C9.75 10.7425 9.847 11.2301 10.0355 11.6851C10.2239 12.14 10.5001 12.5534 10.8483 12.9017C11.5516 13.6049 12.5054 14 13.5 14C13.9925 14 14.4801 13.903 14.9351 13.7145C15.39 13.5261 15.8034 13.2499 16.1516 12.9017C16.4999 12.5534 16.7761 12.14 16.9645 11.6851C17.153 11.2301 17.25 10.7425 17.25 10.25C17.25 9.75754 17.153 9.26991 16.9645 8.81494C16.7761 8.35997 16.4999 7.94657 16.1516 7.59835C15.8034 7.25013 15.39 6.97391 14.9351 6.78545C14.4801 6.597 13.9925 6.5 13.5 6.5ZM21 6.5V8H30V6.5H21ZM21 9.5V11H30V9.5H21ZM21 12.5V14H27V12.5H21Z"
            fill="#00EAFF"/>
</svg>