<svg width="36px" height="34px" viewBox="0 0 36 34" fill="none"
     xmlns="http://www.w3.org/2000/svg">
    <path d="M11 29.7H7.7V33H11V29.7Z" fill="#00EAFF"/>
    <path
            d="M13.2 11.55H14.2L15.35 10.43C15.8375 9.94231 16.4682 9.62342 17.15 9.52C17.3232 9.5097 17.4968 9.5097 17.67 9.52C18.208 9.51849 18.7376 9.65262 19.21 9.91L19.89 10.27L20.11 9.54C20.2552 9.07547 20.501 8.64867 20.83 8.29H13.2V11.55Z"
            fill="#00EAFF"/>
    <path d="M4.4 29.7H1.1V33H4.4V29.7Z" fill="#00EAFF"/>
    <path d="M9.9 8.25H6.6V11.55H9.9V8.25Z" fill="#00EAFF"/>
    <path d="M9.9 14.85H6.6V18.15H9.9V14.85Z" fill="#00EAFF"/>
    <path
            d="M12.51 25.88C11.8391 25.6747 11.2508 25.2614 10.83 24.7C10.4771 24.2346 10.2591 23.6811 10.2 23.1H3.3V3.3H29.7V10L29.91 9.89C30.3897 9.6318 30.9252 9.4945 31.47 9.49C31.6432 9.48009 31.8168 9.48009 31.99 9.49C32.3396 9.54822 32.6774 9.66306 32.99 9.83V3.3C32.9874 2.42732 32.6402 1.59099 32.0241 0.97297C31.4079 0.354955 30.5727 0.00526907 29.7 0H3.3C2.4256 0.00263773 1.58776 0.351162 0.969462 0.969461C0.351162 1.58776 0.00263773 2.4256 0 3.3V23.1C0.00263773 23.9744 0.351162 24.8122 0.969462 25.4305C1.58776 26.0488 2.4256 26.3974 3.3 26.4H13.09L13.25 26.1L12.51 25.88Z"
            fill="#00EAFF"/>
    <path
            d="M35.8 19.78L33.25 19C33.0684 18.3785 32.8203 17.7783 32.51 17.21L33.79 14.86C33.8362 14.7672 33.8536 14.6627 33.84 14.56C33.82 14.4614 33.7713 14.371 33.7 14.3L31.81 12.46C31.739 12.3887 31.6486 12.34 31.55 12.32C31.4473 12.3064 31.3428 12.3238 31.25 12.37L28.89 13.64C28.3147 13.3069 27.7043 13.0386 27.07 12.84L26.29 10.31C26.2611 10.2136 26.2014 10.1292 26.12 10.07C26.0352 10.0195 25.9387 9.99197 25.84 9.99H23.29C23.1894 9.98927 23.0913 10.0208 23.01 10.08C22.9286 10.1392 22.8689 10.2236 22.84 10.32L22.06 12.85C21.4222 13.0391 20.8081 13.3008 20.23 13.63L17.91 12.36C17.8129 12.3257 17.7071 12.3257 17.61 12.36C17.5114 12.38 17.421 12.4287 17.35 12.5L15.47 14.32C15.3984 14.3947 15.3498 14.4884 15.33 14.59C15.3215 14.6894 15.3387 14.7892 15.38 14.88L16.66 17.19C16.3316 17.7615 16.0699 18.3688 15.88 19L13.33 19.78C13.234 19.8041 13.1492 19.8606 13.09 19.94C13.0308 20.0213 12.9993 20.1194 13 20.22V22.75C12.9993 22.8506 13.0308 22.9487 13.09 23.03C13.1516 23.109 13.235 23.1681 13.33 23.2L15.88 23.97C16.0712 24.5943 16.3329 25.1949 16.66 25.76L15.38 28.16C15.3383 28.2542 15.3211 28.3574 15.33 28.46C15.35 28.5586 15.3987 28.649 15.47 28.72L17.27 30.62C17.3405 30.6973 17.4362 30.7469 17.54 30.76C17.6336 30.7944 17.7364 30.7944 17.83 30.76L20.21 29.49C20.7752 29.797 21.372 30.0418 21.99 30.22L22.76 32.75C22.7889 32.8464 22.8486 32.9308 22.93 32.99C23.0113 33.0492 23.1094 33.0807 23.21 33.08H25.76C25.8606 33.0807 25.9587 33.0492 26.04 32.99C26.1213 32.9327 26.1784 32.8471 26.2 32.75L27 30.14C27.6116 29.9617 28.2018 29.7169 28.76 29.41L31.17 30.68C31.2669 30.7151 31.3731 30.7151 31.47 30.68C31.5699 30.6639 31.6615 30.6146 31.73 30.54L33.58 28.7C33.6513 28.629 33.7 28.5386 33.72 28.44C33.7334 28.3405 33.716 28.2393 33.67 28.15L32.39 25.76C32.7036 25.2038 32.9519 24.6132 33.13 24L35.68 23.23C35.7764 23.2011 35.8608 23.1414 35.92 23.06C35.9791 22.9825 36.0107 22.8875 36.01 22.79V20.19C36.0224 20.1268 36.019 20.0615 36 20C35.9602 19.9061 35.8897 19.8286 35.8 19.78ZM24.54 25.78C23.6988 25.792 22.8733 25.5516 22.17 25.09C21.4649 24.638 20.9139 23.9824 20.59 23.21C20.2598 22.4378 20.1692 21.5843 20.33 20.76C20.4528 20.1453 20.71 19.5653 21.0832 19.0617C21.4565 18.5581 21.9365 18.1433 22.489 17.847C23.0414 17.5507 23.6525 17.3803 24.2785 17.348C24.9046 17.3156 25.53 17.4222 26.11 17.66C26.7547 17.9192 27.325 18.3342 27.7698 18.8679C28.2146 19.4017 28.5201 20.0374 28.6588 20.7182C28.7976 21.399 28.7652 22.1036 28.5647 22.7689C28.3642 23.4341 28.0018 24.0392 27.51 24.53C26.721 25.3158 25.6535 25.7579 24.54 25.76V25.78Z"
            fill="#00EAFF"/>
</svg>