<svg width="24" height="24" viewBox="0 0 24 24" fill="none" xmlns="http://www.w3.org/2000/svg">
<path d="M21.6 2.46836H12L9.6 0.0683594H2.4C1.76556 0.0715316 1.15819 0.325788 0.710696 0.775532C0.263201 1.22528 0.0119921 1.83391 0.012 2.46836L0 21.6004C0.00184679 22.2363 0.255296 22.8457 0.704984 23.2954C1.15467 23.7451 1.76405 23.9985 2.4 24.0004H21.6C22.236 23.9985 22.8453 23.7451 23.295 23.2954C23.7447 22.8457 23.9982 22.2363 24 21.6004V4.86836C23.9982 4.23241 23.7447 3.62303 23.295 3.17334C22.8453 2.72366 22.236 2.47021 21.6 2.46836ZM21.6 21.6004H2.4V4.86836H21.6V21.6004Z" fill="#00EAFF"/>
<path d="M13.749 13.7516H10V16.251H13.749V20H16.2497V16.251H20V13.7516H16.2497V10H13.749V13.7516Z" fill="#00EAFF"/>
</svg>
