<svg width="24" height="24" viewBox="0 0 24 24" fill="none" xmlns="http://www.w3.org/2000/svg">
<path d="M10.43 7.34003L5.43 3.85003C5.37753 3.81721 5.31689 3.7998 5.255 3.7998C5.19311 3.7998 5.13247 3.81721 5.08 3.85003C5.02145 3.87741 4.97223 3.92139 4.93846 3.9765C4.90468 4.03161 4.88783 4.09543 4.89 4.16003V5.79003H0.38C0.287679 5.78434 0.196709 5.8144 0.125958 5.87398C0.0552061 5.93356 0.0101021 6.01809 0 6.11003V9.11003C0.0124443 9.20016 0.0585523 9.28223 0.129051 9.33974C0.19955 9.39725 0.28921 9.42594 0.38 9.42003H4.93V11.09C4.92693 11.1498 4.9402 11.2094 4.96839 11.2622C4.99658 11.3151 5.03862 11.3593 5.09 11.39C5.14002 11.4244 5.1993 11.4428 5.26 11.4428C5.32071 11.4428 5.37998 11.4244 5.43 11.39L10.43 7.88003C10.4727 7.84968 10.5071 7.809 10.5298 7.76178C10.5525 7.71456 10.5629 7.66235 10.56 7.61003C10.5628 7.55629 10.5524 7.50269 10.5298 7.45389C10.5071 7.40509 10.4729 7.36256 10.43 7.33003V7.34003Z" fill="#00EAFF"/>
<path d="M8.14969 20.08C8.08794 20.0789 8.02665 20.0907 7.96979 20.1149C7.91294 20.139 7.86179 20.1748 7.8197 20.22C7.77527 20.2606 7.73986 20.31 7.71574 20.3651C7.69162 20.4203 7.67934 20.4798 7.67969 20.54V22.43V23.08C7.68093 23.2042 7.73127 23.3228 7.8197 23.41C7.9096 23.493 8.02732 23.5394 8.14969 23.54H23.5297C23.6526 23.54 23.7707 23.4919 23.8585 23.4059C23.9464 23.3199 23.9971 23.2029 23.9997 23.08V7.41L16.9997 0.5H8.14969C8.02732 0.500605 7.9096 0.546979 7.8197 0.63C7.73127 0.717185 7.68093 0.835824 7.67969 0.96V2.02V3.56C7.68231 3.68291 7.73298 3.7999 7.82084 3.88589C7.9087 3.97189 8.02676 4.02003 8.14969 4.02H9.89969C10.0188 4.01787 10.1329 3.97154 10.2197 3.89C10.2632 3.84868 10.298 3.79909 10.322 3.74414C10.3461 3.68918 10.3589 3.62998 10.3597 3.57V3.15H16.0697V7.87C16.0692 7.93166 16.0813 7.99277 16.1054 8.04954C16.1295 8.10631 16.165 8.15752 16.2097 8.2C16.2534 8.24243 16.305 8.27577 16.3617 8.29808C16.4183 8.3204 16.4788 8.33125 16.5397 8.33H21.3197V20.89H10.3197V20.54C10.3189 20.48 10.3061 20.4208 10.282 20.3659C10.258 20.3109 10.2232 20.2613 10.1797 20.22C10.1391 20.1756 10.0897 20.1402 10.0345 20.116C9.97943 20.0919 9.91986 20.0796 9.85969 20.08H8.14969Z" fill="#00EAFF"/>
<path d="M3.83043 13.83C4.13066 13.8388 4.421 13.9394 4.66236 14.1182C4.90372 14.2969 5.08452 14.5454 5.18043 14.83L7.00043 14.02C6.74199 13.401 6.29891 12.8768 5.7316 12.5189C5.16429 12.161 4.50038 11.9867 3.83043 12.02C3.34856 11.9836 2.86435 12.047 2.40813 12.2064C1.95192 12.3657 1.53352 12.6176 1.17916 12.9462C0.8248 13.2747 0.542103 13.6729 0.348777 14.1158C0.155452 14.5587 0.0556641 15.0368 0.0556641 15.52C0.0556641 16.0033 0.155452 16.4813 0.348777 16.9242C0.542103 17.3671 0.8248 17.7653 1.17916 18.0939C1.53352 18.4224 1.95192 18.6743 2.40813 18.8337C2.86435 18.993 3.34856 19.0565 3.83043 19.02C4.49931 19.0475 5.16075 18.871 5.72694 18.5138C6.29312 18.1565 6.73727 17.6356 7.00043 17.02L5.18043 16.21C5.08452 16.4947 4.90372 16.7431 4.66236 16.9219C4.421 17.1007 4.13066 17.2012 3.83043 17.21C3.38221 17.21 2.95235 17.032 2.63542 16.715C2.31848 16.3981 2.14043 15.9682 2.14043 15.52C2.14043 15.0718 2.31848 14.6419 2.63542 14.325C2.95235 14.0081 3.38221 13.83 3.83043 13.83Z" fill="#00EAFF"/>
<path d="M9.68 17.29C9.33483 17.2842 8.99504 17.2034 8.68422 17.0532C8.3734 16.903 8.09898 16.6869 7.88 16.42L7 17.94C7.32582 18.2993 7.72682 18.5824 8.17449 18.769C8.62215 18.9557 9.10545 19.0414 9.59 19.02C9.91039 19.0535 10.2342 19.0159 10.5384 18.9098C10.8426 18.8038 11.1196 18.632 11.3498 18.4066C11.58 18.1812 11.7576 17.9078 11.87 17.6059C11.9823 17.304 12.0268 16.9811 12 16.66C12 14.14 8.9 14.66 8.9 14.05C8.9 13.88 8.99 13.75 9.32 13.75C9.94438 13.7539 10.5443 13.9932 11 14.42L11.91 12.96C11.5927 12.6486 11.2155 12.4048 10.8013 12.2432C10.387 12.0817 9.94438 12.0057 9.5 12.02C9.19654 12.0019 8.89261 12.0471 8.60758 12.1528C8.32254 12.2585 8.06263 12.4224 7.8444 12.634C7.62617 12.8457 7.45439 13.1004 7.34001 13.3821C7.22562 13.6638 7.17113 13.9662 7.18 14.27C7.18 16.94 10.29 16.27 10.29 16.93C10.29 17.19 9.99 17.29 9.68 17.29Z" fill="#00EAFF"/>
<path d="M14.46 12.02H12L14.64 19.02H17.36L20 12.02H17.54L16 16.73L14.46 12.02Z" fill="#00EAFF"/>
</svg>
