<svg width="24" height="24" viewBox="0 0 24 24" fill="none" xmlns="http://www.w3.org/2000/svg">
<path d="M23.8702 7.32001L18.8702 3.83001C18.8177 3.79719 18.7571 3.77979 18.6952 3.77979C18.6333 3.77979 18.5727 3.79719 18.5202 3.83001C18.4616 3.85739 18.4124 3.90137 18.3787 3.95648C18.3449 4.01159 18.328 4.07541 18.3302 4.14001V5.77001H13.8302C13.7379 5.76432 13.6469 5.79438 13.5762 5.85396C13.5054 5.91354 13.4603 5.99807 13.4502 6.09001V9.09001C13.4626 9.18014 13.5087 9.26221 13.5792 9.31972C13.6497 9.37723 13.7394 9.40592 13.8302 9.40001H18.3802V11.07C18.3771 11.1298 18.3904 11.1894 18.4186 11.2422C18.4468 11.295 18.4888 11.3392 18.5402 11.37C18.5902 11.4044 18.6495 11.4228 18.7102 11.4228C18.7709 11.4228 18.8302 11.4044 18.8802 11.37L23.8802 7.86001C23.9196 7.82951 23.9511 7.78996 23.972 7.74469C23.9929 7.69943 24.0026 7.6498 24.0002 7.60001C24.003 7.54628 23.9926 7.49267 23.97 7.44387C23.9473 7.39507 23.913 7.35255 23.8702 7.32001Z" fill="#00EAFF"/>
<path d="M15.85 20.06H14.1C14.0398 20.0596 13.9803 20.0719 13.9251 20.096C13.87 20.1201 13.8206 20.1556 13.78 20.2C13.7365 20.2413 13.7017 20.2909 13.6777 20.3458C13.6536 20.4008 13.6408 20.46 13.64 20.52V20.87H2.64V8.30998H7.46C7.52087 8.31123 7.58139 8.30038 7.63803 8.27807C7.69468 8.25575 7.74633 8.22241 7.79 8.17998C7.8347 8.1375 7.87019 8.08629 7.89428 8.02952C7.91836 7.97275 7.93052 7.91164 7.93 7.84998V3.12998H13.64V3.54998C13.6408 3.60996 13.6536 3.66916 13.6777 3.72412C13.7017 3.77907 13.7365 3.82866 13.78 3.86998C13.8668 3.95152 13.9809 3.99786 14.1 3.99998H15.85C15.9713 4.00009 16.0879 3.95333 16.1755 3.86947C16.2631 3.7856 16.3148 3.67113 16.32 3.54998V1.99998V0.93998C16.3188 0.815805 16.2684 0.697166 16.18 0.60998C16.0901 0.526959 15.9724 0.480585 15.85 0.47998H7L0 7.38998V23.06C0.00261571 23.1829 0.0532858 23.2999 0.141146 23.3859C0.229006 23.4719 0.347062 23.52 0.47 23.52H15.85C15.9724 23.5194 16.0901 23.473 16.18 23.39C16.2684 23.3028 16.3188 23.1842 16.32 23.06V22.41V20.52C16.3204 20.4598 16.3081 20.4002 16.284 20.3451C16.2598 20.29 16.2244 20.2406 16.18 20.2C16.1379 20.1548 16.0868 20.119 16.0299 20.0949C15.973 20.0707 15.9118 20.0588 15.85 20.06Z" fill="#00EAFF"/>
<path d="M7.83043 13.81C8.13066 13.8188 8.421 13.9193 8.66236 14.0981C8.90372 14.2769 9.08452 14.5253 9.18043 14.81L11.0004 14C10.742 13.381 10.2989 12.8568 9.7316 12.4989C9.16429 12.1409 8.50038 11.9667 7.83043 12C7.34856 11.9635 6.86435 12.027 6.40813 12.1863C5.95192 12.3457 5.53352 12.5976 5.17916 12.9261C4.8248 13.2547 4.5421 13.6529 4.34878 14.0958C4.15545 14.5387 4.05566 15.0167 4.05566 15.5C4.05566 15.9832 4.15545 16.4613 4.34878 16.9042C4.5421 17.3471 4.8248 17.7453 5.17916 18.0738C5.53352 18.4024 5.95192 18.6543 6.40813 18.8136C6.86435 18.973 7.34856 19.0364 7.83043 19C8.49931 19.0275 9.16075 18.8509 9.72694 18.4937C10.2931 18.1365 10.7373 17.6156 11.0004 17L9.18043 16.19C9.08452 16.4746 8.90372 16.7231 8.66236 16.9018C8.421 17.0806 8.13066 17.1812 7.83043 17.19C7.38221 17.19 6.95235 17.0119 6.63542 16.695C6.31848 16.3781 6.14043 15.9482 6.14043 15.5C6.14043 15.0518 6.31848 14.6219 6.63542 14.305C6.95235 13.988 7.38221 13.81 7.83043 13.81Z" fill="#00EAFF"/>
<path d="M13.68 17.27C13.3348 17.2642 12.995 17.1834 12.6842 17.0332C12.3734 16.8829 12.099 16.6669 11.88 16.4L11 17.92C11.3258 18.2793 11.7268 18.5624 12.1745 18.749C12.6221 18.9357 13.1055 19.0214 13.59 19C13.9104 19.0335 14.2342 18.9959 14.5384 18.8898C14.8426 18.7838 15.1196 18.612 15.3498 18.3866C15.58 18.1612 15.7576 17.8878 15.87 17.5859C15.9823 17.284 16.0268 16.961 16 16.64C16 14.12 12.9 14.64 12.9 14.03C12.9 13.86 12.99 13.73 13.32 13.73C13.9444 13.7339 14.5443 13.9732 15 14.4L15.91 12.94C15.5927 12.6286 15.2155 12.3848 14.8013 12.2232C14.387 12.0616 13.9444 11.9857 13.5 12C13.1965 11.9818 12.8926 12.027 12.6076 12.1327C12.3225 12.2385 12.0626 12.4023 11.8444 12.614C11.6262 12.8256 11.4544 13.0804 11.34 13.3621C11.2256 13.6437 11.1711 13.9461 11.18 14.25C11.18 16.92 14.29 16.25 14.29 16.91C14.29 17.17 13.99 17.27 13.68 17.27Z" fill="#00EAFF"/>
<path d="M18.46 12H16L18.64 19H21.36L24 12H21.54L20 16.71L18.46 12Z" fill="#00EAFF"/>
</svg>
