<svg width="24" height="24" viewBox="0 0 24 24" fill="none" xmlns="http://www.w3.org/2000/svg">
<path d="M23.1822 5.0491L19.0573 0.924217C18.5189 0.418536 17.8135 0.128383 17.0751 0.108953C16.3368 0.0895228 15.6171 0.342171 15.0528 0.818837L1.50395 14.3677C1.01734 14.8585 0.714355 15.5016 0.645851 16.1893L-0.00148524 22.467C-0.021765 22.6875 0.00684633 22.9097 0.082309 23.1179C0.157772 23.3261 0.278227 23.515 0.43509 23.6713C0.575758 23.8108 0.742584 23.9212 0.926003 23.9961C1.10942 24.0711 1.30582 24.109 1.50395 24.1079H1.63944L7.91709 23.5358C8.60477 23.4673 9.24795 23.1643 9.73867 22.6777L23.2876 9.12883C23.8134 8.57327 24.0976 7.83191 24.0779 7.06719C24.0581 6.30247 23.736 5.57677 23.1822 5.0491ZM7.64611 20.525L3.12982 20.9465L3.53628 16.4302L12.042 8.02986L16.1066 12.0945L7.64611 20.525ZM18.0637 10.0773L14.0292 6.04269L16.9647 3.03182L21.0746 7.14165L18.0637 10.0773Z" fill="#00EAFF"/>
</svg>
