<svg width="29" height="36" viewBox="0 0 29 36" fill="none" xmlns="http://www.w3.org/2000/svg">
<path d="M22.5406 29.5547L18.4625 29.175L10.8231 21.5883L14.4953 17.9297L22.1748 25.4906L22.5406 29.5547Z" fill="#00EAFF"/>
<path d="M12.6993 16.1414L9.05778 19.7719L6.33667 17.1305L10.049 13.432L12.6993 16.1414Z" fill="#00EAFF"/>
<path fill-rule="evenodd" clip-rule="evenodd" d="M29 10.8L18.125 0H3.625C2.52051 0 1.53166 0.498047 0.86849 1.27852C0.337484 1.90664 0.0188802 2.71758 0.0188802 3.6L0 32.4C0 33.1688 0.243083 33.8836 0.658447 34.4695C1.31217 35.3941 2.38835 36 3.60612 36H25.4222C27.4023 35.9754 29 34.3734 29 32.4V10.8ZM8.15861 11.5348L4.43449 15.2473C3.93416 15.7219 3.64388 16.3746 3.625 17.0637C3.6132 17.5441 3.73592 18.0141 3.97192 18.4242C4.07341 18.6012 4.19613 18.7676 4.34009 18.9188L16.5745 31.1133C17.0181 31.5504 17.5987 31.8234 18.2194 31.8855L23.8882 32.4H24.0109C24.1879 32.4012 24.3673 32.3672 24.5325 32.2992C24.6151 32.2652 24.6953 32.223 24.7708 32.1727C24.844 32.1246 24.9124 32.0695 24.9762 32.0074C25.1178 31.8668 25.2263 31.6969 25.2948 31.5094C25.3608 31.3219 25.3868 31.1215 25.3703 30.9234L24.785 25.2738C24.7449 24.859 24.608 24.4641 24.3909 24.116C24.2847 23.9426 24.1572 23.7809 24.0109 23.6344L11.7765 11.4398C11.2668 11.0109 10.6154 10.7836 9.94987 10.8012C9.28198 10.8188 8.64478 11.0801 8.15861 11.5348Z" fill="#00EAFF"/>
</svg>
