<svg width="24" height="24" viewBox="0 0 24 24" fill="none" xmlns="http://www.w3.org/2000/svg">
<path fill-rule="evenodd" clip-rule="evenodd" d="M12 24C5.3724 24 0 18.6276 0 12C0 5.3724 5.3724 0 12 0C18.6276 0 24 5.3724 24 12C24 18.6276 18.6276 24 12 24ZM12 21.6C14.5461 21.6 16.9879 20.5886 18.7882 18.7882C20.5886 16.9879 21.6 14.5461 21.6 12C21.6 9.45392 20.5886 7.01212 18.7882 5.21178C16.9879 3.41143 14.5461 2.4 12 2.4C9.45392 2.4 7.01212 3.41143 5.21178 5.21178C3.41143 7.01212 2.4 9.45392 2.4 12C2.4 14.5461 3.41143 16.9879 5.21178 18.7882C7.01212 20.5886 9.45392 21.6 12 21.6Z" fill="#00EAFF"/>
<path d="M14.0763 16.3389C14.4038 17.0088 14.722 17.6593 15.0394 18.3083C12.8398 19.8881 10.7017 18.5062 10.4368 16.7269C10.3862 16.3584 10.4027 15.9838 10.4856 15.6212C10.7244 14.5589 11.0078 13.5059 11.2774 12.4503C11.3352 12.2241 11.3705 12.0093 11.1617 11.8356C10.9461 11.6561 10.7335 11.7148 10.5126 11.8298C10.2657 11.9584 10.0121 12.0744 9.72844 12.2119L8.75586 10.2196C9.69321 9.68092 10.6214 9.23712 11.7265 9.62107C12.3695 9.83766 12.9075 10.2883 13.2333 10.8835C13.5592 11.4786 13.6491 12.1746 13.4852 12.8331C13.2203 13.9091 12.9508 14.984 12.6766 16.0576C12.6188 16.2832 12.6113 16.4819 12.8071 16.6411C13.0007 16.7987 13.1982 16.7699 13.4056 16.6602C13.6174 16.5488 13.8378 16.4524 14.0763 16.3389Z" fill="#00EAFF"/>
<path d="M13.9456 6.39651C13.9457 6.67253 13.864 6.94237 13.7108 7.17199C13.5576 7.40161 13.3399 7.58071 13.085 7.68668C12.8301 7.79265 12.5496 7.82073 12.2788 7.7674C12.008 7.71406 11.759 7.58169 11.5634 7.387C11.3677 7.1923 11.2342 6.94401 11.1795 6.67346C11.1249 6.40291 11.1516 6.12224 11.2563 5.86687C11.361 5.61149 11.5391 5.39287 11.768 5.23859C11.9968 5.08432 12.2663 5.00131 12.5423 5.00004C12.7264 4.99872 12.9089 5.03389 13.0793 5.10352C13.2497 5.17315 13.4046 5.27586 13.5351 5.40571C13.6656 5.53555 13.769 5.68997 13.8395 5.86003C13.9099 6.0301 13.946 6.21243 13.9456 6.39651Z" fill="#00EAFF"/>
</svg>
