<svg width="24" height="24" viewBox="0 0 24 24" fill="none" xmlns="http://www.w3.org/2000/svg">
<path d="M10.43 7.31885L5.43 3.82885C5.37749 3.79615 5.31686 3.77881 5.255 3.77881C5.19314 3.77881 5.13251 3.79615 5.08 3.82885C5.02098 3.85595 4.97149 3.90021 4.938 3.95585C4.90475 4.01097 4.88808 4.07451 4.89 4.13885V5.76885H0.38C0.287679 5.76316 0.196709 5.79322 0.125958 5.8528C0.0552061 5.91238 0.0101021 5.99691 0 6.08885L0 9.08885C0.0122196 9.17908 0.0582666 9.26129 0.128819 9.31885C0.199371 9.3764 0.289157 9.405 0.38 9.39885H4.93V11.0689C4.9269 11.1286 4.94003 11.188 4.968 11.2409C4.9967 11.2935 5.03879 11.3377 5.09 11.3689C5.14002 11.4033 5.1993 11.4217 5.26 11.4217C5.32071 11.4217 5.37998 11.4033 5.43 11.3689L10.43 7.85885C10.4728 7.82863 10.5072 7.78803 10.53 7.74085C10.5523 7.69342 10.5626 7.64122 10.56 7.58885C10.5629 7.53511 10.5525 7.48148 10.5299 7.43266C10.5072 7.38384 10.4729 7.34133 10.43 7.30885V7.31885Z" fill="#00EAFF"/>
<path d="M8.14994 20.06C8.08816 20.059 8.02685 20.0709 7.96994 20.095C7.9131 20.119 7.86199 20.1548 7.81994 20.2C7.77547 20.2405 7.74002 20.29 7.7159 20.3451C7.69178 20.4002 7.67953 20.4598 7.67994 20.52V23.06C7.68039 23.1215 7.69299 23.1823 7.71702 23.2389C7.74104 23.2956 7.77602 23.3469 7.81994 23.39C7.9099 23.4729 8.02759 23.5193 8.14994 23.52H23.5299C23.6527 23.5202 23.7705 23.4721 23.8579 23.386C23.946 23.3 23.9969 23.183 23.9999 23.06V7.38998L16.9999 0.47998H8.14994C8.02759 0.480682 7.9099 0.527043 7.81994 0.60998C7.77602 0.653054 7.74104 0.704381 7.71702 0.761013C7.69299 0.817644 7.68039 0.878465 7.67994 0.93998V3.53998C7.68256 3.66289 7.73323 3.77988 7.82109 3.86587C7.90895 3.95187 8.027 4.00001 8.14994 3.99998H9.89994C10.0191 3.99805 10.1332 3.95168 10.2199 3.86998C10.2632 3.82853 10.2979 3.77891 10.3219 3.72398C10.346 3.66906 10.3589 3.60992 10.3599 3.54998V3.12998H16.0699V7.84998C16.0689 7.91172 16.0808 7.973 16.1049 8.02985C16.129 8.08669 16.1648 8.13784 16.2099 8.17998C16.2533 8.22329 16.305 8.25732 16.3619 8.27998C16.4186 8.30212 16.4791 8.31299 16.5399 8.31198H21.3199V20.87H10.3199V20.52C10.3189 20.46 10.306 20.4009 10.2819 20.346C10.2579 20.2911 10.2232 20.2414 10.1799 20.2C10.1394 20.1555 10.09 20.1201 10.0348 20.0959C9.9797 20.0718 9.92012 20.0596 9.85994 20.06H8.14994Z" fill="#00EAFF"/>
<path d="M11.4761 11.8877C9.73808 11.8877 8.61108 13.4237 8.61108 15.4797C8.61108 17.4327 9.63208 18.9667 11.3781 18.9667C13.0991 18.9667 14.2671 17.6057 14.2691 15.3557C14.2691 13.4647 13.2821 11.8877 11.4761 11.8877ZM11.4501 17.7337C10.5611 17.7337 10.0191 16.7887 10.0191 15.4457C10.0191 14.1027 10.5411 13.1167 11.4431 13.1167C12.3451 13.1167 12.8661 14.1777 12.8661 15.4047C12.8661 16.7377 12.3511 17.7337 11.4501 17.7337Z" fill="#00EAFF"/>
<path d="M18.786 12.0039V14.0039C18.786 15.0319 18.812 15.9569 18.899 16.8609H18.875C18.5994 16.0607 18.2778 15.2771 17.912 14.5139L16.689 12.0029H15.134V18.8559H16.357V16.7929C16.357 15.6729 16.34 14.7059 16.303 13.8019L16.331 13.7919C16.635 14.6179 16.9754 15.4239 17.352 16.2099L18.61 18.8549H20.01V12.0039H18.786Z" fill="#00EAFF"/>
<path d="M6.45807 14.7869C5.69607 14.4519 5.36507 14.2569 5.36507 13.8199C5.36507 13.4649 5.64507 13.1599 6.22107 13.1599C6.65236 13.1594 7.07632 13.2714 7.45107 13.4849L7.75107 12.2349C7.28728 11.9975 6.77202 11.8783 6.25107 11.8879C5.96566 11.8618 5.67795 11.896 5.40664 11.9884C5.13534 12.0807 4.88651 12.2292 4.67636 12.4241C4.46621 12.6189 4.29943 12.8559 4.18687 13.1195C4.07432 13.383 4.0185 13.6673 4.02307 13.9539C4.03912 14.4204 4.20495 14.8693 4.49599 15.2342C4.78704 15.5991 5.18784 15.8605 5.63907 15.9799C6.34507 16.2749 6.62207 16.5189 6.62207 16.9469C6.62207 17.3919 6.30207 17.6889 5.69107 17.6889C5.17026 17.6759 4.66172 17.5281 4.21507 17.2599L3.94507 18.5419C4.45532 18.8218 5.02912 18.9654 5.61107 18.9589C6.14145 19.0183 6.67485 18.877 7.10627 18.5628C7.53768 18.2487 7.83586 17.7844 7.94209 17.2614C8.04833 16.7383 7.95492 16.1945 7.68026 15.7369C7.4056 15.2793 6.96959 14.9411 6.45807 14.7889V14.7869Z" fill="#00EAFF"/>
<path d="M1.739 16.3159C1.739 17.3819 1.389 17.6769 0.832 17.6769C0.599111 17.6784 0.367935 17.637 0.15 17.5549L0 18.8049C0.312824 18.9122 0.641275 18.967 0.972 18.9669C2.261 18.9669 3.065 18.2859 3.065 16.3339V12.0039H1.739V16.3159Z" fill="#00EAFF"/>
</svg>
