<svg width="24" height="24" viewBox="0 0 24 24" fill="none" xmlns="http://www.w3.org/2000/svg">
<g clip-path="url(#clip0_5070_6528)">
<path d="M23.869 7.31978L18.869 3.82978C18.8145 3.79727 18.7524 3.77985 18.689 3.77931C18.6256 3.77877 18.5632 3.79512 18.5082 3.82669C18.4532 3.85826 18.4076 3.9039 18.3761 3.95892C18.3446 4.01395 18.3284 4.07637 18.329 4.13978V5.76978H13.829C13.7365 5.76358 13.6453 5.79346 13.5744 5.85314C13.5036 5.91281 13.4586 5.99764 13.449 6.08978V9.08978C13.4616 9.17981 13.5078 9.26174 13.5783 9.31921C13.6487 9.37668 13.7382 9.40545 13.829 9.39978H18.379V11.0688C18.3757 11.1289 18.3892 11.1888 18.418 11.2418C18.446 11.2946 18.4878 11.3388 18.539 11.3698C18.589 11.4042 18.6483 11.4226 18.709 11.4226C18.7697 11.4226 18.829 11.4042 18.879 11.3698L23.879 7.85978C23.9184 7.829 23.95 7.78923 23.971 7.74378C23.9924 7.69892 24.0024 7.64944 24 7.59978C24.0031 7.54577 23.9928 7.49182 23.97 7.44278C23.9468 7.3942 23.9121 7.35198 23.869 7.31978Z" fill="#00EAFF"/>
<path d="M15.85 20.06H14.1C14.0398 20.0601 13.9803 20.0726 13.9252 20.0969C13.8701 20.1212 13.8207 20.1566 13.78 20.201C13.7371 20.242 13.7031 20.2913 13.68 20.346C13.656 20.4013 13.6431 20.4607 13.642 20.521V20.871H2.642V8.30998H7.46C7.52081 8.31173 7.58136 8.30119 7.638 8.27898C7.69477 8.25601 7.74643 8.22202 7.79 8.17898C7.83344 8.13651 7.86751 8.08542 7.89 8.02898C7.91438 7.97213 7.92664 7.91083 7.926 7.84898V3.12998H13.636V3.54998C13.6371 3.61024 13.65 3.66971 13.674 3.72498C13.6971 3.77964 13.7311 3.82899 13.774 3.86998C13.8623 3.95308 13.9788 3.99955 14.1 3.99998H15.85C15.9714 4.00059 16.0883 3.95399 16.176 3.87003C16.2637 3.78606 16.3153 3.6713 16.32 3.54998V0.93998C16.3184 0.815873 16.2682 0.697352 16.18 0.60998C16.0899 0.527208 15.9723 0.480874 15.85 0.47998H7L0 7.38998V23.06C0.00261189 23.183 0.0532489 23.3001 0.141082 23.3862C0.228914 23.4724 0.34697 23.5207 0.47 23.521H15.85C15.9724 23.5197 16.09 23.473 16.18 23.39C16.2685 23.3029 16.3189 23.1842 16.32 23.06V20.521C16.3202 20.4608 16.308 20.4012 16.284 20.346C16.2299 20.2362 16.1404 20.1478 16.03 20.095C15.9731 20.0709 15.9118 20.059 15.85 20.06Z" fill="#00EAFF"/>
<path d="M15.4651 11.8882C13.7271 11.8882 12.6001 13.4242 12.6001 15.4812C12.6001 17.4342 13.6211 18.9682 15.3671 18.9682C17.0881 18.9682 18.2561 17.6062 18.2581 15.3572C18.2581 13.4652 17.2711 11.8882 15.4651 11.8882ZM15.4391 17.7352C14.5501 17.7352 14.0081 16.7902 14.0081 15.4462C14.0081 14.1022 14.5301 13.1182 15.4321 13.1182C16.3341 13.1182 16.8551 14.1792 16.8551 15.4062C16.8551 16.7392 16.3401 17.7352 15.4391 17.7352Z" fill="#00EAFF"/>
<path d="M22.775 12V14C22.775 15.028 22.801 15.952 22.888 16.857H22.864C22.5888 16.0567 22.2672 15.273 21.901 14.51L20.678 12H19.123V18.854H20.346V16.793C20.346 15.674 20.329 14.707 20.292 13.802L20.32 13.792C20.624 14.6187 20.9644 15.4247 21.341 16.21L22.6 18.856H24V12H22.775Z" fill="#00EAFF"/>
<path d="M10.4469 14.788C9.68493 14.453 9.35393 14.258 9.35393 13.821C9.35393 13.465 9.63493 13.16 10.2099 13.16C10.6412 13.1595 11.0652 13.2715 11.4399 13.485L11.7399 12.236C11.2762 11.9982 10.761 11.8786 10.2399 11.888C9.95431 11.8617 9.66636 11.8959 9.39481 11.9882C9.12327 12.0806 8.87421 12.2291 8.66385 12.4241C8.45349 12.619 8.28655 12.8561 8.17388 13.1199C8.06122 13.3837 8.00536 13.6682 8.00993 13.955C8.02669 14.4213 8.19305 14.8699 8.48443 15.2344C8.77581 15.5989 9.17673 15.86 9.62793 15.979C10.3339 16.273 10.6109 16.517 10.6109 16.946C10.6109 17.391 10.2909 17.688 9.67993 17.688C9.15784 17.6751 8.64796 17.5274 8.19993 17.259L7.92993 18.541C8.44052 18.8199 9.01415 18.9632 9.59593 18.957C10.1269 19.018 10.6614 18.8776 11.0939 18.5635C11.5263 18.2495 11.8253 17.7847 11.9317 17.261C12.0381 16.7373 11.9442 16.1927 11.6686 15.7348C11.3929 15.2769 10.9556 14.9391 10.4429 14.788H10.4469Z" fill="#00EAFF"/>
<path d="M5.72801 16.316C5.72801 17.383 5.37801 17.677 4.82101 17.677C4.58807 17.6791 4.35678 17.6377 4.13901 17.555L3.98901 18.805C4.30166 18.9131 4.63019 18.9682 4.96101 18.968C6.25001 18.968 7.05401 18.287 7.05401 16.334V12H5.72801V16.316Z" fill="#00EAFF"/>
</g>
<defs>
<clipPath id="clip0_5070_6528">
<rect width="24" height="23.04" fill="white" transform="translate(0 0.47998)"/>
</clipPath>
</defs>
</svg>
