<svg width="24" height="24" viewBox="0 0 24 24" fill="none" xmlns="http://www.w3.org/2000/svg">
<path d="M10.43 7.32001L5.43 3.83001C5.37753 3.79719 5.31689 3.77979 5.255 3.77979C5.19311 3.77979 5.13247 3.79719 5.08 3.83001C5.02145 3.85739 4.97223 3.90137 4.93846 3.95648C4.90468 4.01159 4.88783 4.07541 4.89 4.14001V5.77001H0.38C0.287679 5.76432 0.196709 5.79438 0.125958 5.85396C0.0552061 5.91354 0.0101021 5.99807 0 6.09001V9.09001C0.0124443 9.18014 0.0585523 9.26221 0.129051 9.31972C0.19955 9.37723 0.28921 9.40592 0.38 9.40001H4.93V11.07C4.92693 11.1298 4.9402 11.1894 4.96839 11.2422C4.99658 11.295 5.03862 11.3392 5.09 11.37C5.14002 11.4044 5.1993 11.4228 5.26 11.4228C5.32071 11.4228 5.37998 11.4044 5.43 11.37L10.43 7.86001C10.4727 7.82966 10.5071 7.78898 10.5298 7.74176C10.5525 7.69454 10.5629 7.64233 10.56 7.59001C10.5628 7.53628 10.5524 7.48267 10.5298 7.43387C10.5071 7.38507 10.4729 7.34255 10.43 7.31001V7.32001Z" fill="#00EAFF"/>
<path d="M8.14969 20.06C8.08794 20.0588 8.02665 20.0707 7.96979 20.0949C7.91294 20.119 7.86179 20.1548 7.8197 20.2C7.77527 20.2406 7.73986 20.29 7.71574 20.3451C7.69162 20.4002 7.67934 20.4598 7.67969 20.52V22.41V23.06C7.68093 23.1842 7.73127 23.3028 7.8197 23.39C7.9096 23.473 8.02732 23.5194 8.14969 23.52H23.5297C23.6526 23.52 23.7707 23.4719 23.8585 23.3859C23.9464 23.2999 23.9971 23.1829 23.9997 23.06V7.38998L16.9997 0.47998H8.14969C8.02732 0.480585 7.9096 0.526959 7.8197 0.60998C7.73127 0.697166 7.68093 0.815805 7.67969 0.93998V1.99998V3.53998C7.68231 3.66289 7.73298 3.77988 7.82084 3.86587C7.9087 3.95187 8.02676 4.00001 8.14969 3.99998H9.89969C10.0188 3.99786 10.1329 3.95152 10.2197 3.86998C10.2632 3.82866 10.298 3.77907 10.322 3.72412C10.3461 3.66916 10.3589 3.60996 10.3597 3.54998V3.12998H16.0697V7.84998C16.0692 7.91164 16.0813 7.97275 16.1054 8.02952C16.1295 8.08629 16.165 8.1375 16.2097 8.17998C16.2534 8.22241 16.305 8.25575 16.3617 8.27807C16.4183 8.30038 16.4788 8.31123 16.5397 8.30998H21.3197V20.87H10.3197V20.52C10.3189 20.46 10.3061 20.4008 10.282 20.3458C10.258 20.2909 10.2232 20.2413 10.1797 20.2C10.1391 20.1556 10.0897 20.1201 10.0345 20.096C9.97943 20.0719 9.91986 20.0596 9.85969 20.06H8.14969Z" fill="#00EAFF"/>
<path d="M7.13 12.1001L5 15.2601L7.47 18.9001H4.83L3.46 16.7601L2.08 18.9001H0L2.39 15.3801L0.1 12.1001H2.74L3.9 13.9301L5.09 12.1001H7.13Z" fill="#00EAFF"/>
<path d="M13.16 17.2301V18.9001H8V12.1001H10.28V17.2301H13.16Z" fill="#00EAFF"/>
<path d="M13.1904 16.93L15.3004 16.58C15.3973 16.855 15.5873 17.0874 15.8374 17.2372C16.0876 17.3869 16.3823 17.4445 16.6704 17.4C17.2404 17.4 17.5204 17.26 17.5204 16.99C17.5238 16.92 17.5067 16.8505 17.4711 16.7901C17.4356 16.7297 17.3832 16.681 17.3204 16.65C17.1036 16.5318 16.8658 16.4571 16.6204 16.43C15.7212 16.3609 14.8573 16.0499 14.1204 15.53C13.9431 15.3631 13.802 15.1616 13.7057 14.938C13.6093 14.7144 13.5599 14.4734 13.5604 14.23C13.5608 13.922 13.6323 13.6183 13.7693 13.3425C13.9064 13.0667 14.1052 12.8263 14.3504 12.64C15.0189 12.1727 15.8266 11.947 16.6404 12C17.2528 11.9258 17.8729 12.0474 18.4118 12.3474C18.9508 12.6474 19.3809 13.1104 19.6404 13.67L17.7604 14.19C17.66 13.9649 17.4906 13.7777 17.2766 13.6554C17.0626 13.5331 16.8153 13.4822 16.5704 13.51C16.0804 13.51 15.8304 13.65 15.8304 13.93C15.8291 13.9893 15.8443 14.0479 15.8743 14.0991C15.9043 14.1503 15.948 14.1921 16.0004 14.22C16.2046 14.322 16.4242 14.3896 16.6504 14.42C17.2885 14.538 17.9195 14.6916 18.5404 14.88C18.9104 15.0105 19.2338 15.247 19.4704 15.56C19.7196 15.8831 19.8503 16.282 19.8404 16.69C19.8449 17.023 19.7635 17.3516 19.6041 17.6441C19.4447 17.9366 19.2127 18.1831 18.9304 18.36C18.2214 18.8205 17.3847 19.0446 16.5404 19C14.7204 19 13.6104 18.31 13.1904 16.93Z" fill="#00EAFF"/>
</svg>
