<svg width="24" height="24" viewBox="0 0 24 24" fill="none" xmlns="http://www.w3.org/2000/svg">
<path d="M23.8702 7.32001L18.8702 3.83001C18.8177 3.79719 18.7571 3.77979 18.6952 3.77979C18.6333 3.77979 18.5727 3.79719 18.5202 3.83001C18.4616 3.85739 18.4124 3.90137 18.3787 3.95648C18.3449 4.01159 18.328 4.07541 18.3302 4.14001V5.77001H13.8302C13.7379 5.76432 13.6469 5.79438 13.5762 5.85396C13.5054 5.91354 13.4603 5.99807 13.4502 6.09001V9.09001C13.4626 9.18014 13.5087 9.26221 13.5792 9.31972C13.6497 9.37723 13.7394 9.40592 13.8302 9.40001H18.3802V11.07C18.3771 11.1298 18.3904 11.1894 18.4186 11.2422C18.4468 11.295 18.4888 11.3392 18.5402 11.37C18.5902 11.4044 18.6495 11.4228 18.7102 11.4228C18.7709 11.4228 18.8302 11.4044 18.8802 11.37L23.8802 7.86001C23.9196 7.82951 23.9511 7.78996 23.972 7.74469C23.9929 7.69943 24.0026 7.6498 24.0002 7.60001C24.003 7.54628 23.9926 7.49267 23.97 7.44387C23.9473 7.39507 23.913 7.35255 23.8702 7.32001Z" fill="#00EAFF"/>
<path d="M15.85 20.06H14.1C14.0398 20.0596 13.9803 20.0719 13.9251 20.096C13.87 20.1201 13.8206 20.1556 13.78 20.2C13.7365 20.2413 13.7017 20.2909 13.6777 20.3458C13.6536 20.4008 13.6408 20.46 13.64 20.52V20.87H2.64V8.30998H7.46C7.52087 8.31123 7.58139 8.30038 7.63803 8.27807C7.69468 8.25575 7.74633 8.22241 7.79 8.17998C7.8347 8.1375 7.87019 8.08629 7.89428 8.02952C7.91836 7.97275 7.93052 7.91164 7.93 7.84998V3.12998H13.64V3.54998C13.6408 3.60996 13.6536 3.66916 13.6777 3.72412C13.7017 3.77907 13.7365 3.82866 13.78 3.86998C13.8668 3.95152 13.9809 3.99786 14.1 3.99998H15.85C15.9713 4.00009 16.0879 3.95333 16.1755 3.86947C16.2631 3.7856 16.3148 3.67113 16.32 3.54998V1.99998V0.93998C16.3188 0.815805 16.2684 0.697166 16.18 0.60998C16.0901 0.526959 15.9724 0.480585 15.85 0.47998H7L0 7.38998V23.06C0.00261571 23.1829 0.0532858 23.2999 0.141146 23.3859C0.229006 23.4719 0.347062 23.52 0.47 23.52H15.85C15.9724 23.5194 16.0901 23.473 16.18 23.39C16.2684 23.3028 16.3188 23.1842 16.32 23.06V22.41V20.52C16.3204 20.4598 16.3081 20.4002 16.284 20.3451C16.2598 20.29 16.2244 20.2406 16.18 20.2C16.1379 20.1548 16.0868 20.119 16.0299 20.0949C15.973 20.0707 15.9118 20.0588 15.85 20.06Z" fill="#00EAFF"/>
<path d="M11.13 12.1001L9 15.2601L11.49 18.9001H8.83L7.46 16.7601L6.08 18.9001H4L6.39 15.3801L4.1 12.1001H6.74L7.9 13.9301L9.09 12.1001H11.13Z" fill="#00EAFF"/>
<path d="M17.16 17.2301V18.9001H12V12.1001H14.28V17.2301H17.16Z" fill="#00EAFF"/>
<path d="M17.1904 16.93L19.3004 16.58C19.3973 16.855 19.5873 17.0874 19.8374 17.2372C20.0876 17.3869 20.3823 17.4445 20.6704 17.4C21.2404 17.4 21.5204 17.26 21.5204 16.99C21.5238 16.92 21.5067 16.8505 21.4711 16.7901C21.4356 16.7297 21.3832 16.681 21.3204 16.65C21.1036 16.5318 20.8658 16.4571 20.6204 16.43C19.7212 16.3609 18.8573 16.0499 18.1204 15.53C17.9431 15.3631 17.802 15.1616 17.7057 14.938C17.6093 14.7144 17.5599 14.4734 17.5604 14.23C17.5608 13.922 17.6323 13.6183 17.7693 13.3425C17.9064 13.0667 18.1052 12.8263 18.3504 12.64C19.0189 12.1727 19.8266 11.947 20.6404 12C21.2528 11.9258 21.8729 12.0474 22.4118 12.3474C22.9508 12.6474 23.3809 13.1104 23.6404 13.67L21.7604 14.19C21.66 13.9649 21.4906 13.7777 21.2766 13.6554C21.0626 13.5331 20.8153 13.4822 20.5704 13.51C20.0804 13.51 19.8304 13.65 19.8304 13.93C19.8291 13.9893 19.8443 14.0479 19.8743 14.0991C19.9043 14.1503 19.948 14.1921 20.0004 14.22C20.2046 14.322 20.4242 14.3896 20.6504 14.42C21.2885 14.538 21.9195 14.6916 22.5404 14.88C22.9104 15.0105 23.2338 15.247 23.4704 15.56C23.7196 15.8831 23.8503 16.282 23.8404 16.69C23.8449 17.023 23.7635 17.3516 23.6041 17.6441C23.4447 17.9366 23.2127 18.1831 22.9304 18.36C22.2214 18.8205 21.3847 19.0446 20.5404 19C18.7204 19 17.6104 18.31 17.1904 16.93Z" fill="#00EAFF"/>
</svg>
